<svg width="550" height="246" version="1.1" xmlns="http://www.w3.org/2000/svg" desc="Created with imagetracer.js version 1.2.6" ><path fill="rgb(0,0,0)" stroke="rgb(0,0,0)" stroke-width="1" opacity="0" d="M 0 0 L 550 0 L 550 246 L 0 246 L 0 0 Z M 325 13 L 281 48 L 282 52 L 278 53 L 277 50 L 270 52 L 266 57 L 267 61 L 260 64 L 259 65 L 256 62 L 250 63 Q 244 65 245 73 L 239 76 Q 236 81 234 75 L 226 78 Q 222 80 223 86 Q 220 88 214 87 L 211 89 L 205 96 L 203 95 L 199 96 L 195 101 L 195 103 L 190 105 L 166 111 L 118 120 L 107 124 L 100 133 L 97 148 Q 97 155 101 159 Q 110 167 124 172 L 148 180 L 170 185 L 129 185 L 128 186 L 96 187 L 93 189 L 102 190 L 115 190 L 116 191 L 143 191 L 144 192 L 415 192 L 417 192 L 420 191 L 442 191 L 443 190 L 453 190 L 461 189 L 459 187 L 427 186 L 424 185 L 432 183 L 444 177 L 452 168 Q 454 149 445 142 L 445 129 L 445 127 L 444 126 L 444 112 L 443 111 L 443 101 L 442 100 L 442 89 L 441 88 L 440 69 L 439 68 L 439 59 L 436 50 L 432 45 L 425 43 L 415 43 L 404 48 L 397 58 Q 392 65 381 67 L 364 66 L 342 58 L 346 51 L 348 43 Q 346 27 337 20 Q 333 14 325 13 Z M 124 198 L 118 200 L 112 207 Q 111 213 113 217 L 119 221 L 129 224 Q 131 225 130 230 L 126 233 L 119 232 L 116 227 L 109 229 L 110 234 Q 113 239 121 240 Q 128 240 133 237 Q 137 234 138 229 L 138 225 L 136 219 Q 131 215 123 214 L 119 211 Q 119 206 123 205 Q 128 204 130 206 L 132 209 L 137 207 Q 139 208 138 205 Q 134 198 124 198 Z M 197 198 L 188 202 Q 180 207 178 218 Q 177 227 180 232 Q 184 238 194 240 Q 203 240 208 236 L 214 230 L 218 217 L 217 210 L 215 206 Q 211 197 197 198 Z M 264 198 L 255 202 L 252 208 L 253 217 L 259 221 L 269 224 Q 271 225 270 230 L 266 233 L 259 232 L 256 227 L 249 229 L 251 236 L 261 240 L 272 238 Q 277 236 278 230 L 277 221 L 274 217 L 264 214 L 260 212 L 261 206 L 264 205 Q 271 204 273 209 L 279 206 L 278 204 Q 274 197 264 198 Z M 308 198 L 301 201 L 296 208 L 297 217 L 303 221 L 313 224 Q 315 225 314 230 L 310 233 L 303 232 L 300 227 L 293 229 Q 292 233 295 236 L 305 240 L 314 239 L 317 237 Q 321 234 322 229 Q 323 222 320 219 Q 315 215 307 214 Q 303 213 304 208 Q 306 204 313 205 L 317 210 Q 318 206 323 207 L 322 204 Q 318 197 308 198 Z M 145 199 L 142 234 L 141 235 L 141 239 L 149 239 L 149 232 L 150 231 L 150 222 L 166 222 Q 164 227 165 236 L 164 237 L 164 239 L 171 239 L 172 238 L 175 204 L 176 203 L 176 199 L 168 199 L 168 208 L 167 209 L 167 215 L 151 215 L 153 203 L 153 199 L 145 199 Z M 224 199 L 220 239 L 244 239 L 245 238 L 245 232 L 228 232 L 229 222 L 244 222 L 245 221 L 245 215 L 230 215 L 231 206 L 247 206 L 248 205 Q 249 199 248 199 L 224 199 Z M 326 199 L 326 206 L 337 207 L 336 208 L 334 235 L 333 236 L 333 239 L 341 239 L 343 213 L 344 212 L 344 206 L 356 206 L 357 200 L 360 205 L 368 222 L 368 232 L 367 233 L 367 239 L 374 239 L 375 237 L 376 223 L 392 200 L 383 199 L 374 214 Q 375 216 372 215 L 366 201 L 366 199 L 326 199 Z M 394 199 L 393 217 L 392 218 L 392 228 L 390 238 L 392 239 L 414 239 L 414 232 L 399 232 L 401 206 L 402 205 L 402 199 L 394 199 Z M 422 199 L 420 212 L 419 230 L 418 231 L 418 239 L 443 239 L 443 232 L 426 232 L 427 228 L 427 222 L 443 222 L 443 215 L 428 215 Q 427 209 429 206 L 445 206 L 446 205 Q 447 199 446 199 L 422 199 Z " /><path fill="rgb(0,0,0)" stroke="rgb(0,0,0)" stroke-width="1" opacity="0" d="M 197.5 205 Q 206.4 204.6 209 210.5 L 210 218.5 L 208 225.5 L 202.5 231 Q 199.3 233.3 192.5 232 L 187 227.5 Q 184.5 224 186 216.5 Q 187.5 210 192.5 207 L 197.5 205 Z " /><path fill="rgb(218,67,61)" stroke="rgb(218,67,61)" stroke-width="1" opacity="1" d="M 326.5 18 L 329.5 18 L 338 25.5 L 342 33.5 L 335.5 42 L 324.5 47 L 317.5 45 L 313.5 42 L 302.5 42 L 295 45 L 297.5 41 L 300.5 40 L 326.5 18 Z " /><path fill="rgb(218,67,61)" stroke="rgb(218,67,61)" stroke-width="1" opacity="1" d="M 303.5 46 L 312.5 46 L 337.5 60 L 350.5 64 L 352.5 66 L 366.5 70 L 382.5 70 Q 392 68.5 397 62.5 L 407.5 49 L 416.5 46 L 423.5 46 L 426 47 Q 427.3 50 423.5 49 Q 414.6 51.6 410 58.5 L 399.5 73 L 386.5 80 L 373.5 81 L 352.5 75 L 336.5 64 L 325.5 58 L 320.5 57 L 312.5 60 L 297.5 70 L 256.5 92 L 242.5 101 L 238.5 102 L 223.5 111 L 218.5 112 L 206 118 L 205 120.5 L 205 133.5 L 203.5 135 L 192.5 130 L 178.5 130 L 177.5 129 L 176.5 130 L 137.5 130 L 126 126.5 L 127.5 125 L 132.5 125 L 141.5 122 L 177.5 115 L 188.5 111 L 192.5 108 L 197.5 107 L 205.5 112 L 212.5 112 L 216 105.5 L 212.5 101 L 210 99.5 L 211.5 96 L 222.5 92 L 226 99 L 232.5 100 L 235 99 L 238 93.5 L 238 88.5 L 236 84.5 L 238.5 81 Q 240.8 78.3 246.5 79 L 251.5 86 Q 258.8 87.3 261 83.5 L 262 76.5 Q 259.2 74.8 260 69.5 L 262.5 67 L 266.5 66 L 272.5 75 L 277.5 76 L 283 72.5 L 284 66.5 Q 280.4 64.6 281 58.5 Q 282 56 286.5 57 L 295.5 64 L 299.5 64 L 304 60.5 L 304 55.5 L 300 50.5 L 300 48 L 303.5 46 Z " /><path fill="rgb(218,67,61)" stroke="rgb(218,67,61)" stroke-width="1" opacity="1" d="M 300.5 88 Q 305.5 87.5 306 91.5 L 333.5 124 Q 335.8 123.3 335 125.5 L 356 149.5 L 356 152 L 342.5 153 L 336 147.5 L 316 123 Q 313.3 124.1 314 121.5 L 292 96.5 L 291 93.5 L 300.5 88 Z " /><path fill="rgb(218,67,61)" stroke="rgb(218,67,61)" stroke-width="1" opacity="1" d="M 274.5 102 Q 278.9 100.5 278 103.5 L 305 135.5 L 306 139 L 315 146.5 Q 314.3 148.8 316.5 148 L 318 151 Q 321.7 149.8 320 155 L 309.5 155 L 308.5 156 L 304.5 155 L 301 151.5 L 297 145 L 293 142.5 L 266 109.5 L 266 107.5 L 274.5 102 Z " /><path fill="rgb(218,67,61)" stroke="rgb(218,67,61)" stroke-width="1" opacity="1" d="M 247.5 115 Q 253.3 114.3 254 118.5 L 260 128 Q 262.7 126.9 262 129.5 L 273.5 142 L 278 145.5 L 281 151 Q 283.7 149.9 283 152.5 L 287 155 Q 288.5 158.8 285.5 158 Q 280.5 161 271.5 160 L 258.5 144 L 256 142.5 L 240 122.5 L 240 119.5 L 247.5 115 Z " /><path fill="rgb(125,82,116)" stroke="rgb(125,82,116)" stroke-width="1" opacity="1" d="M 327.5 16 L 338 24.5 L 332.5 20 Q 327.9 18.8 327.5 16 Z " /><path fill="rgb(125,82,116)" stroke="rgb(125,82,116)" stroke-width="1" opacity="1" d="M 321.5 17 L 317.5 22 L 310.5 28 L 316.5 21 L 321.5 17 Z " /><path fill="rgb(125,82,116)" stroke="rgb(125,82,116)" stroke-width="1" opacity="1" d="M 338.5 26 L 339.5 28 L 338.5 26 Z " /><path fill="rgb(125,82,116)" stroke="rgb(125,82,116)" stroke-width="1" opacity="1" d="M 308.5 28 L 303.5 34 L 308.5 28 Z " /><path fill="rgb(125,82,116)" stroke="rgb(125,82,116)" stroke-width="1" opacity="1" d="M 299.5 36 L 295.5 41 L 299.5 36 Z " /><path fill="rgb(125,82,116)" stroke="rgb(125,82,116)" stroke-width="1" opacity="1" d="M 302.5 42 L 313.5 42 L 315 43.5 L 313.5 43 Q 300.8 41.3 295.5 47 L 296.5 45 L 302.5 42 Z " /><path fill="rgb(125,82,116)" stroke="rgb(125,82,116)" stroke-width="1" opacity="1" d="M 292.5 44 L 293.5 46 L 292.5 44 Z " /><path fill="rgb(125,82,116)" stroke="rgb(125,82,116)" stroke-width="1" opacity="1" d="M 305.5 45 L 312 45.5 L 305.5 46 L 305.5 45 Z " /><path fill="rgb(125,82,116)" stroke="rgb(125,82,116)" stroke-width="1" opacity="1" d="M 302.5 46 L 301.5 48 L 298 49.5 L 302 52.5 L 300.5 53 L 297 49.5 L 298.5 48 L 302.5 46 Z " /><path fill="rgb(125,82,116)" stroke="rgb(125,82,116)" stroke-width="1" opacity="1" d="M 313.5 46 L 324 51.5 L 322.5 51 L 313.5 47 L 313.5 46 Z " /><path fill="rgb(125,82,116)" stroke="rgb(125,82,116)" stroke-width="1" opacity="1" d="M 321.5 46 L 324 46.5 L 321.5 47 L 321.5 46 Z " /><path fill="rgb(125,82,116)" stroke="rgb(125,82,116)" stroke-width="1" opacity="1" d="M 413.5 46 L 416 46.5 L 413.5 47 L 413.5 46 Z " /><path fill="rgb(125,82,116)" stroke="rgb(125,82,116)" stroke-width="1" opacity="1" d="M 424.5 46 Q 430.3 46.3 433 49.5 Q 433.8 51.8 431.5 51 L 423 49.5 L 426 49 Q 427.1 46.3 424.5 47 L 424.5 46 Z " /><path fill="rgb(125,82,116)" stroke="rgb(125,82,116)" stroke-width="1" opacity="1" d="M 406.5 49 L 404 52.5 L 397.5 61 L 399 58.5 L 406.5 49 Z " /><path fill="rgb(125,82,116)" stroke="rgb(125,82,116)" stroke-width="1" opacity="1" d="M 420.5 50 L 422 50.5 L 417.5 53 L 418.5 51 L 420.5 50 Z " /><path fill="rgb(125,82,116)" stroke="rgb(125,82,116)" stroke-width="1" opacity="1" d="M 325.5 52 L 337 58.5 L 335.5 58 L 326.5 54 L 325.5 52 Z " /><path fill="rgb(125,82,116)" stroke="rgb(125,82,116)" stroke-width="1" opacity="1" d="M 428.5 52 L 431 52.5 L 428.5 53 L 428.5 52 Z " /><path fill="rgb(125,82,116)" stroke="rgb(125,82,116)" stroke-width="1" opacity="1" d="M 284 54 Q 286.7 52.9 286 55.5 L 289.5 60 Q 288.5 56 282.5 57 Q 280.3 57.8 281 61.5 L 281.5 63 Q 278.8 61.6 280 57 L 284 56 L 284 54 Z " /><path fill="rgb(125,82,116)" stroke="rgb(125,82,116)" stroke-width="1" opacity="1" d="M 414.5 54 L 416 54.5 L 412 57.5 Q 407.4 67.4 399.5 74 Q 391.5 82.5 374.5 82 L 374.5 81 L 382.5 81 L 389.5 79 L 402 70.5 L 414.5 54 Z " /><path fill="rgb(125,82,116)" stroke="rgb(125,82,116)" stroke-width="1" opacity="1" d="M 417.5 55 L 415.5 58 L 417.5 55 Z " /><path fill="rgb(125,82,116)" stroke="rgb(125,82,116)" stroke-width="1" opacity="1" d="M 320.5 57 L 323 57.5 L 320.5 58 L 320.5 57 Z " /><path fill="rgb(125,82,116)" stroke="rgb(125,82,116)" stroke-width="1" opacity="1" d="M 324.5 58 L 339 66.5 L 336.5 65 L 324.5 59 L 324.5 58 Z " /><path fill="rgb(125,82,116)" stroke="rgb(125,82,116)" stroke-width="1" opacity="1" d="M 314.5 59 L 313.5 61 L 308.5 64 L 309.5 62 L 314.5 59 Z " /><path fill="rgb(125,82,116)" stroke="rgb(125,82,116)" stroke-width="1" opacity="1" d="M 303.5 60 L 301.5 63 L 303.5 60 Z " /><path fill="rgb(125,82,116)" stroke="rgb(125,82,116)" stroke-width="1" opacity="1" d="M 340.5 60 L 349 63.5 L 347.5 64 L 340.5 61 L 340.5 60 Z " /><path fill="rgb(125,82,116)" stroke="rgb(125,82,116)" stroke-width="1" opacity="1" d="M 396.5 62 L 395.5 64 L 396.5 62 Z " /><path fill="rgb(125,82,116)" stroke="rgb(125,82,116)" stroke-width="1" opacity="1" d="M 267.5 64 L 270 70.5 L 269 70.5 L 266.5 66 L 259.5 69 L 260.5 67 L 267.5 64 Z " /><path fill="rgb(125,82,116)" stroke="rgb(125,82,116)" stroke-width="1" opacity="1" d="M 282.5 64 Q 284.8 65.8 284 70.5 L 283 70.5 L 282.5 64 Z " /><path fill="rgb(125,82,116)" stroke="rgb(125,82,116)" stroke-width="1" opacity="1" d="M 306.5 64 L 305.5 66 L 301.5 68 L 302.5 66 L 306.5 64 Z " /><path fill="rgb(125,82,116)" stroke="rgb(125,82,116)" stroke-width="1" opacity="1" d="M 351.5 64 L 354 65.5 L 352.5 66 L 351.5 64 Z " /><path fill="rgb(125,82,116)" stroke="rgb(125,82,116)" stroke-width="1" opacity="1" d="M 393.5 64 L 392.5 66 L 393.5 64 Z " /><path fill="rgb(125,82,116)" stroke="rgb(125,82,116)" stroke-width="1" opacity="1" d="M 390.5 66 L 389.5 68 L 388 67.5 L 390.5 66 Z " /><path fill="rgb(125,82,116)" stroke="rgb(125,82,116)" stroke-width="1" opacity="1" d="M 340.5 67 L 350 73.5 L 348.5 73 Q 342 71.3 340.5 67 Z " /><path fill="rgb(125,82,116)" stroke="rgb(125,82,116)" stroke-width="1" opacity="1" d="M 299.5 68 L 298.5 70 L 299.5 68 Z " /><path fill="rgb(125,82,116)" stroke="rgb(125,82,116)" stroke-width="1" opacity="1" d="M 384.5 68 L 387 68.5 L 384.5 69 L 384.5 68 Z " /><path fill="rgb(125,82,116)" stroke="rgb(125,82,116)" stroke-width="1" opacity="1" d="M 366.5 69 L 383 69.5 L 366.5 70 L 366.5 69 Z " /><path fill="rgb(125,82,116)" stroke="rgb(125,82,116)" stroke-width="1" opacity="1" d="M 259.5 70 L 260 72.5 L 259 72.5 L 259.5 70 Z " /><path fill="rgb(125,82,116)" stroke="rgb(125,82,116)" stroke-width="1" opacity="1" d="M 296.5 70 L 295.5 72 L 291.5 74 L 292.5 72 L 296.5 70 Z " /><path fill="rgb(125,82,116)" stroke="rgb(125,82,116)" stroke-width="1" opacity="1" d="M 270.5 72 L 272.5 75 L 270.5 72 Z " /><path fill="rgb(125,82,116)" stroke="rgb(125,82,116)" stroke-width="1" opacity="1" d="M 282.5 72 L 281.5 74 L 282.5 72 Z " /><path fill="rgb(125,82,116)" stroke="rgb(125,82,116)" stroke-width="1" opacity="1" d="M 289.5 74 L 288.5 76 L 284.5 78 L 285.5 76 L 289.5 74 Z " /><path fill="rgb(125,82,116)" stroke="rgb(125,82,116)" stroke-width="1" opacity="1" d="M 274.5 75 L 278 75.5 L 274.5 76 L 274.5 75 Z " /><path fill="rgb(125,82,116)" stroke="rgb(125,82,116)" stroke-width="1" opacity="1" d="M 244.5 77 Q 247.8 75.9 247 78.5 L 247.5 80 L 242.5 79 L 241 79.5 L 244.5 77 Z " /><path fill="rgb(125,82,116)" stroke="rgb(125,82,116)" stroke-width="1" opacity="1" d="M 358.5 77 L 363 78.5 L 360.5 79 L 358.5 77 Z " /><path fill="rgb(125,82,116)" stroke="rgb(125,82,116)" stroke-width="1" opacity="1" d="M 282.5 78 L 281.5 80 L 268.5 87 L 269.5 85 L 282.5 78 Z " /><path fill="rgb(125,82,116)" stroke="rgb(125,82,116)" stroke-width="1" opacity="1" d="M 364.5 79 L 367 79.5 L 364.5 80 L 364.5 79 Z " /><path fill="rgb(125,82,116)" stroke="rgb(125,82,116)" stroke-width="1" opacity="1" d="M 238.5 80 L 240 80.5 L 237 82.5 L 235.5 85 L 235 83.5 L 238.5 80 Z " /><path fill="rgb(125,82,116)" stroke="rgb(125,82,116)" stroke-width="1" opacity="1" d="M 368.5 80 L 373 80.5 L 368.5 81 L 368.5 80 Z " /><path fill="rgb(125,82,116)" stroke="rgb(125,82,116)" stroke-width="1" opacity="1" d="M 248.5 81 L 250 83.5 L 248 82.5 L 248.5 81 Z " /><path fill="rgb(125,82,116)" stroke="rgb(125,82,116)" stroke-width="1" opacity="1" d="M 260.5 83 L 259.5 85 L 260.5 83 Z " /><path fill="rgb(125,82,116)" stroke="rgb(125,82,116)" stroke-width="1" opacity="1" d="M 301.5 84 L 304 84.5 L 296.5 88 L 297.5 86 L 301.5 84 Z " /><path fill="rgb(125,82,116)" stroke="rgb(125,82,116)" stroke-width="1" opacity="1" d="M 255.5 85 L 258 85.5 L 255.5 86 L 255.5 85 Z " /><path fill="rgb(125,82,116)" stroke="rgb(125,82,116)" stroke-width="1" opacity="1" d="M 304.5 86 Q 306.8 85.3 306 87.5 L 309 89 L 308.5 91 L 304.5 86 Z " /><path fill="rgb(125,82,116)" stroke="rgb(125,82,116)" stroke-width="1" opacity="1" d="M 237.5 88 L 238 93.5 L 237 93.5 L 237.5 88 Z " /><path fill="rgb(125,82,116)" stroke="rgb(125,82,116)" stroke-width="1" opacity="1" d="M 264.5 88 L 263.5 90 L 255.5 94 L 256.5 92 L 264.5 88 Z " /><path fill="rgb(125,82,116)" stroke="rgb(125,82,116)" stroke-width="1" opacity="1" d="M 291.5 89 L 293 89.5 L 288.5 92 L 288.5 91 L 291.5 89 Z " /><path fill="rgb(125,82,116)" stroke="rgb(125,82,116)" stroke-width="1" opacity="1" d="M 222.5 90 Q 225.1 89.2 224 92.5 L 222.5 92 L 216.5 94 L 216.5 93 L 222.5 90 Z " /><path fill="rgb(125,82,116)" stroke="rgb(125,82,116)" stroke-width="1" opacity="1" d="M 288.5 93 L 292 95.5 L 314 123 Q 316.7 121.9 316 124.5 L 340.5 152 L 342 152.5 L 339.5 153 Q 327.6 135.9 312 122.5 L 288.5 93 Z " /><path fill="rgb(125,82,116)" stroke="rgb(125,82,116)" stroke-width="1" opacity="1" d="M 310.5 93 L 314.5 98 L 310.5 93 Z " /><path fill="rgb(125,82,116)" stroke="rgb(125,82,116)" stroke-width="1" opacity="1" d="M 224.5 94 L 226 96.5 L 224 95.5 L 224.5 94 Z " /><path fill="rgb(125,82,116)" stroke="rgb(125,82,116)" stroke-width="1" opacity="1" d="M 253.5 94 L 252.5 96 L 253.5 94 Z " /><path fill="rgb(125,82,116)" stroke="rgb(125,82,116)" stroke-width="1" opacity="1" d="M 210.5 96 L 210 97.5 L 211.5 101 L 215 103.5 L 212.5 102 L 207 98.5 L 210.5 96 Z " /><path fill="rgb(125,82,116)" stroke="rgb(125,82,116)" stroke-width="1" opacity="1" d="M 233.5 98 L 235 98.5 L 231.5 100 L 231.5 99 L 233.5 98 Z " /><path fill="rgb(125,82,116)" stroke="rgb(125,82,116)" stroke-width="1" opacity="1" d="M 275.5 98 Q 279.5 97.5 280 100.5 L 288 110.5 L 283 106.5 L 277.5 99 Q 274.5 99.5 275.5 98 Z " /><path fill="rgb(125,82,116)" stroke="rgb(125,82,116)" stroke-width="1" opacity="1" d="M 273.5 99 L 272.5 101 L 268.5 103 L 269.5 101 L 273.5 99 Z " /><path fill="rgb(125,82,116)" stroke="rgb(125,82,116)" stroke-width="1" opacity="1" d="M 315.5 99 L 318.5 103 L 315.5 99 Z " /><path fill="rgb(125,82,116)" stroke="rgb(125,82,116)" stroke-width="1" opacity="1" d="M 240.5 101 L 242 101.5 L 237.5 104 L 238.5 102 L 240.5 101 Z " /><path fill="rgb(125,82,116)" stroke="rgb(125,82,116)" stroke-width="1" opacity="1" d="M 194.5 105 L 207 111.5 L 205.5 112 L 194.5 106 L 194.5 105 Z " /><path fill="rgb(125,82,116)" stroke="rgb(125,82,116)" stroke-width="1" opacity="1" d="M 320.5 105 L 323 106 L 325.5 110 L 327 110.5 L 325.5 111 L 320.5 105 Z " /><path fill="rgb(125,82,116)" stroke="rgb(125,82,116)" stroke-width="1" opacity="1" d="M 231.5 106 L 230.5 108 L 226.5 110 L 227.5 108 L 231.5 106 Z " /><path fill="rgb(125,82,116)" stroke="rgb(125,82,116)" stroke-width="1" opacity="1" d="M 187.5 107 L 190 107.5 L 187.5 108 L 187.5 107 Z " /><path fill="rgb(125,82,116)" stroke="rgb(125,82,116)" stroke-width="1" opacity="1" d="M 263.5 107 L 266 108 L 294 143.5 L 286 136.5 L 269 114 Q 266.3 115.1 267 112.5 L 263.5 107 Z " /><path fill="rgb(125,82,116)" stroke="rgb(125,82,116)" stroke-width="1" opacity="1" d="M 180.5 109 L 183 109.5 L 180.5 110 L 180.5 109 Z " /><path fill="rgb(125,82,116)" stroke="rgb(125,82,116)" stroke-width="1" opacity="1" d="M 176.5 110 L 179 110.5 L 176.5 111 L 176.5 110 Z " /><path fill="rgb(125,82,116)" stroke="rgb(125,82,116)" stroke-width="1" opacity="1" d="M 213.5 110 L 212.5 112 L 211 111.5 L 213.5 110 Z " /><path fill="rgb(125,82,116)" stroke="rgb(125,82,116)" stroke-width="1" opacity="1" d="M 172.5 111 L 175 111.5 L 172.5 112 L 172.5 111 Z " /><path fill="rgb(125,82,116)" stroke="rgb(125,82,116)" stroke-width="1" opacity="1" d="M 248.5 111 L 247.5 113 L 243.5 115 L 244.5 113 L 248.5 111 Z " /><path fill="rgb(125,82,116)" stroke="rgb(125,82,116)" stroke-width="1" opacity="1" d="M 251.5 111 L 254.5 115 Q 256.8 114.3 256 116.5 L 258 120 Q 260.7 118.9 260 121.5 L 272 135.5 L 267 131.5 L 252 113.5 L 251.5 111 Z " /><path fill="rgb(125,82,116)" stroke="rgb(125,82,116)" stroke-width="1" opacity="1" d="M 168.5 112 L 171 112.5 L 168.5 113 L 168.5 112 Z " /><path fill="rgb(125,82,116)" stroke="rgb(125,82,116)" stroke-width="1" opacity="1" d="M 218.5 112 L 220 112.5 L 206.5 119 L 206.5 118 L 218.5 112 Z " /><path fill="rgb(125,82,116)" stroke="rgb(125,82,116)" stroke-width="1" opacity="1" d="M 288.5 112 L 292.5 117 L 288.5 112 Z " /><path fill="rgb(125,82,116)" stroke="rgb(125,82,116)" stroke-width="1" opacity="1" d="M 326.5 112 L 330 114.5 L 331 116.5 L 326.5 112 Z " /><path fill="rgb(125,82,116)" stroke="rgb(125,82,116)" stroke-width="1" opacity="1" d="M 163.5 113 L 166 113.5 L 163.5 114 L 163.5 113 Z " /><path fill="rgb(125,82,116)" stroke="rgb(125,82,116)" stroke-width="1" opacity="1" d="M 157.5 114 L 161 114.5 L 157.5 115 L 157.5 114 Z " /><path fill="rgb(125,82,116)" stroke="rgb(125,82,116)" stroke-width="1" opacity="1" d="M 153.5 115 L 156 115.5 L 153.5 116 L 153.5 115 Z " /><path fill="rgb(125,82,116)" stroke="rgb(125,82,116)" stroke-width="1" opacity="1" d="M 148.5 116 L 151 116.5 L 148.5 117 L 148.5 116 Z " /><path fill="rgb(125,82,116)" stroke="rgb(125,82,116)" stroke-width="1" opacity="1" d="M 239.5 116 L 238.5 118 Q 235.9 117.3 237 120 Q 241.1 118.3 240 122.5 L 257.5 144 L 261 146.5 L 264 150.5 L 250 137.5 L 236 118.5 L 239.5 116 Z " /><path fill="rgb(125,82,116)" stroke="rgb(125,82,116)" stroke-width="1" opacity="1" d="M 143.5 117 L 146 117.5 L 143.5 118 L 143.5 117 Z " /><path fill="rgb(125,82,116)" stroke="rgb(125,82,116)" stroke-width="1" opacity="1" d="M 138.5 118 L 141 118.5 L 138.5 119 L 138.5 118 Z " /><path fill="rgb(125,82,116)" stroke="rgb(125,82,116)" stroke-width="1" opacity="1" d="M 134.5 119 L 137 119.5 L 134.5 120 L 134.5 119 Z " /><path fill="rgb(125,82,116)" stroke="rgb(125,82,116)" stroke-width="1" opacity="1" d="M 294.5 119 L 296.5 122 L 294.5 119 Z " /><path fill="rgb(125,82,116)" stroke="rgb(125,82,116)" stroke-width="1" opacity="1" d="M 129.5 120 L 132 120.5 L 129.5 121 L 129.5 120 Z " /><path fill="rgb(125,82,116)" stroke="rgb(125,82,116)" stroke-width="1" opacity="1" d="M 205.5 120 L 206 137 L 203 135.5 L 205 133.5 L 205.5 120 Z " /><path fill="rgb(125,82,116)" stroke="rgb(125,82,116)" stroke-width="1" opacity="1" d="M 333.5 120 L 339 124.5 L 337.5 125 L 333.5 120 Z " /><path fill="rgb(125,82,116)" stroke="rgb(125,82,116)" stroke-width="1" opacity="1" d="M 120.5 122 L 122 122.5 L 120 123.5 L 120.5 125 Q 117.5 123.5 120.5 122 Z " /><path fill="rgb(125,82,116)" stroke="rgb(125,82,116)" stroke-width="1" opacity="1" d="M 297.5 123 L 304 131 Q 306.7 129.9 306 132.5 L 306.5 134 L 297.5 123 Z " /><path fill="rgb(125,82,116)" stroke="rgb(125,82,116)" stroke-width="1" opacity="1" d="M 124.5 126 L 128 127.5 L 125.5 128 L 124.5 126 Z " /><path fill="rgb(125,82,116)" stroke="rgb(125,82,116)" stroke-width="1" opacity="1" d="M 339.5 127 L 342.5 131 L 339.5 127 Z " /><path fill="rgb(125,82,116)" stroke="rgb(125,82,116)" stroke-width="1" opacity="1" d="M 130.5 128 L 133 128.5 L 130.5 129 L 130.5 128 Z " /><path fill="rgb(125,82,116)" stroke="rgb(125,82,116)" stroke-width="1" opacity="1" d="M 134.5 129 L 137 129.5 L 134.5 130 L 134.5 129 Z " /><path fill="rgb(125,82,116)" stroke="rgb(125,82,116)" stroke-width="1" opacity="1" d="M 143.5 130 L 149 130.5 L 143.5 131 L 143.5 130 Z " /><path fill="rgb(125,82,116)" stroke="rgb(125,82,116)" stroke-width="1" opacity="1" d="M 189.5 130 Q 196.8 129.7 200 133.5 L 198.5 133 L 189.5 131 L 189.5 130 Z " /><path fill="rgb(125,82,116)" stroke="rgb(125,82,116)" stroke-width="1" opacity="1" d="M 307.5 135 L 313 141.5 L 311 140.5 L 307.5 135 Z " /><path fill="rgb(125,82,116)" stroke="rgb(125,82,116)" stroke-width="1" opacity="1" d="M 346.5 135 L 348.5 138 L 346.5 135 Z " /><path fill="rgb(125,82,116)" stroke="rgb(125,82,116)" stroke-width="1" opacity="1" d="M 272.5 137 L 290 157.5 L 285.5 159 L 285.5 158 Q 288.5 158.7 287 155 L 283 152.5 L 284 151.5 L 280 147.5 L 278 144.5 L 272.5 137 Z " /><path fill="rgb(125,82,116)" stroke="rgb(125,82,116)" stroke-width="1" opacity="1" d="M 349.5 139 L 352.5 143 L 349.5 139 Z " /><path fill="rgb(125,82,116)" stroke="rgb(125,82,116)" stroke-width="1" opacity="1" d="M 314.5 143 L 324 155 L 320 155 L 320 153.5 L 321.5 154 L 323 153.5 L 314.5 143 Z " /><path fill="rgb(125,82,116)" stroke="rgb(125,82,116)" stroke-width="1" opacity="1" d="M 295.5 145 Q 297.8 144.3 297 146.5 L 304.5 155 L 308 155.5 L 305.5 157 Q 298.3 151.7 295.5 145 Z " /><path fill="rgb(125,82,116)" stroke="rgb(125,82,116)" stroke-width="1" opacity="1" d="M 354.5 145 L 355.5 147 L 354.5 145 Z " /><path fill="rgb(125,82,116)" stroke="rgb(125,82,116)" stroke-width="1" opacity="1" d="M 356.5 148 L 358.5 151 L 356.5 148 Z " /><path fill="rgb(125,82,116)" stroke="rgb(125,82,116)" stroke-width="1" opacity="1" d="M 356.5 151 L 360 152.5 L 349.5 153 L 349.5 152 Q 355 153.5 356.5 151 Z " /><path fill="rgb(125,82,116)" stroke="rgb(125,82,116)" stroke-width="1" opacity="1" d="M 264.5 152 L 267.5 156 L 264.5 152 Z " /><path fill="rgb(125,82,116)" stroke="rgb(125,82,116)" stroke-width="1" opacity="1" d="M 309.5 155 L 318 155.5 L 309.5 156 L 309.5 155 Z " /><path fill="rgb(125,82,116)" stroke="rgb(125,82,116)" stroke-width="1" opacity="1" d="M 270.5 159 L 276 160.5 L 271.5 161 L 270.5 159 Z " /><path fill="rgb(8,16,56)" stroke="rgb(8,16,56)" stroke-width="1" opacity="0.9490196078431372" d="M 324.5 13 Q 332.8 14.2 337 19.5 Q 346.2 27.3 348 42.5 L 346 50.5 L 342 58 L 363.5 66 L 380.5 67 Q 391.8 65.3 397 57.5 L 403.5 48 L 414.5 43 L 424.5 43 L 431.5 45 L 436 49.5 L 439 58.5 L 439 67.5 L 440 68.5 L 441 87.5 L 442 88.5 L 442 99.5 L 443 100.5 L 443 110.5 L 444 111.5 L 444 125.5 L 445 126.5 L 445 128.5 L 445 141.5 Q 453.7 149.3 452 167.5 L 443.5 177 L 431.5 183 L 424 184.5 L 426.5 186 L 458.5 187 L 461 188.5 L 452.5 190 L 442.5 190 L 441.5 191 L 419.5 191 L 416.5 192 L 414.5 192 L 143.5 192 L 142.5 191 L 115.5 191 L 114.5 190 L 101.5 190 L 93 188.5 L 95.5 187 L 127.5 186 L 128.5 185 L 170 184.5 L 147.5 180 L 123.5 172 Q 110.2 167.3 101 158.5 Q 97.3 154.7 97 147.5 L 100 132.5 L 106.5 124 L 117.5 120 L 165.5 111 L 189.5 105 L 195 102.5 L 195 100.5 L 198.5 96 L 202.5 95 L 205 96 L 210.5 89 L 213.5 87 Q 220.3 87.9 223 86 Q 221.5 79.7 225.5 78 L 233.5 75 Q 236 80.5 238.5 76 L 245 73 Q 243.5 64.9 249.5 63 L 255.5 62 L 258.5 65 L 259.5 64 L 267 61 L 266 56.5 L 269.5 52 L 276.5 50 L 278 53 L 282 51.5 L 281 47.5 L 324.5 13 Z M 324 16 L 300 36 L 292 45 L 296 47 L 304 43 Q 316 41 322 47 L 326 47 L 335 43 L 342 35 L 342 32 L 338 25 Q 334 17 324 16 Z M 289 44 L 287 45 Q 283 46 284 51 L 289 54 L 292 58 Q 294 57 293 60 L 300 61 Q 303 60 302 57 L 295 50 L 292 47 L 289 44 Z M 306 45 L 297 50 L 302 53 Q 305 54 304 60 L 298 64 L 292 61 L 286 54 Q 283 53 284 56 L 280 57 L 280 62 L 283 67 L 283 72 Q 281 76 274 75 Q 268 72 269 64 Q 262 65 258 70 L 262 79 L 262 82 L 259 85 L 252 86 L 247 77 L 239 80 L 235 84 Q 238 87 237 96 L 231 100 L 228 99 Q 223 96 224 88 L 223 90 L 207 99 L 213 102 L 216 107 L 215 109 L 211 112 Q 201 111 197 105 L 168 113 L 158 114 L 125 122 Q 118 121 119 124 L 126 128 Q 132 127 135 130 L 143 130 L 144 131 Q 148 132 150 130 L 189 130 Q 198 132 205 137 L 206 137 L 206 119 Q 265 92 318 58 L 324 58 L 337 65 L 346 72 L 361 79 L 375 82 Q 392 83 400 74 L 415 55 Q 417 56 416 53 L 423 50 L 431 50 L 432 51 Q 434 52 433 50 L 427 46 Q 413 44 407 49 Q 400 54 397 62 Q 392 67 384 69 L 366 69 L 355 66 L 338 59 L 315 46 L 306 45 Z M 274 52 L 268 57 L 272 72 L 274 73 Q 279 74 281 71 L 276 54 Q 277 51 274 52 Z M 424 52 L 413 58 L 408 68 Q 400 81 382 84 L 369 83 L 361 81 L 346 74 L 323 60 L 318 60 L 305 68 L 303 72 L 306 73 Q 308 72 307 75 L 309 75 L 309 77 L 337 95 Q 350 103 369 107 L 391 106 L 423 93 L 438 93 L 439 94 L 437 63 L 435 54 Q 434 51 433 53 L 432 52 L 424 52 Z M 253 64 L 248 66 L 247 69 L 250 81 L 253 84 Q 258 84 260 81 L 256 70 L 256 66 L 253 64 Z M 300 72 L 226 113 Q 223 114 224 118 Q 220 119 222 114 L 207 122 L 208 140 L 197 134 L 190 132 L 164 132 L 163 133 L 142 133 L 131 131 L 124 128 L 122 128 L 121 127 L 120 127 L 117 123 L 108 126 L 101 135 L 101 141 L 99 147 L 100 154 L 108 160 L 125 168 L 150 175 L 166 178 L 168 178 L 174 180 L 184 180 L 193 182 L 204 182 L 205 183 L 264 183 L 265 182 L 304 182 L 305 181 L 328 181 L 329 182 L 354 183 L 355 184 L 400 184 L 409 182 L 416 182 L 429 179 L 447 170 L 450 167 Q 449 162 451 161 L 448 150 L 444 143 L 440 145 Q 437 144 438 147 L 424 152 L 418 152 L 412 154 L 403 154 L 402 155 L 385 155 L 384 156 L 339 156 L 338 155 L 328 157 L 305 158 L 299 160 L 278 162 L 272 164 L 249 166 L 248 167 L 237 167 L 236 168 L 199 168 L 198 167 L 174 166 L 167 164 L 153 163 L 129 158 L 109 149 Q 106 150 107 148 L 107 146 L 110 149 L 121 154 L 144 160 L 163 162 L 170 164 L 178 164 L 179 165 L 212 166 L 213 167 Q 218 169 220 166 L 246 166 L 255 164 L 257 165 L 265 163 L 256 155 L 252 148 L 249 147 L 238 139 Q 239 136 237 137 L 234 133 L 231 132 L 223 124 L 224 121 L 224 124 L 235 133 Q 237 132 236 135 L 255 147 L 258 150 L 260 150 L 260 149 L 259 146 L 272 161 L 290 158 Q 291 155 289 156 L 281 147 L 279 143 L 282 144 L 292 142 L 295 144 L 304 157 L 324 155 L 312 139 Q 316 140 318 137 L 323 133 L 338 152 L 340 153 L 360 153 L 357 148 L 355 144 L 359 147 L 374 150 L 397 150 L 402 149 L 423 143 L 434 138 Q 440 134 442 126 L 440 105 L 432 98 L 423 98 L 402 104 L 393 108 L 380 110 L 378 110 L 362 108 L 345 102 Q 328 94 316 83 Q 313 84 314 81 L 312 81 L 310 79 L 303 72 L 300 72 Z M 231 78 L 225 82 L 226 84 L 226 95 L 230 98 L 232 98 L 235 94 L 234 82 L 233 81 Q 234 77 231 78 Z M 200 98 L 199 99 Q 195 98 197 103 L 208 110 L 212 109 Q 215 110 213 105 L 204 98 L 200 98 Z " /><path fill="rgb(8,16,56)" stroke="rgb(8,16,56)" stroke-width="1" opacity="0.9490196078431372" d="M 123.5 198 Q 134.4 197.6 138 204.5 Q 139.1 207.8 136.5 207 L 131.5 209 L 130 206 Q 127.9 204.4 122.5 205 Q 118.5 205.5 119 210.5 L 122.5 214 Q 131 215.2 136 219 L 138 224.5 L 138 228.5 Q 136.8 234.3 132.5 237 Q 128.2 240.2 120.5 240 Q 113.1 238.9 110 233.5 L 109 229 L 116 227 L 118.5 232 L 125.5 233 L 130 229.5 Q 131 225 128.5 224 L 118.5 221 L 113 216.5 Q 110.7 213.3 112 206.5 L 117.5 200 L 123.5 198 Z " /><path fill="rgb(8,16,56)" stroke="rgb(8,16,56)" stroke-width="1" opacity="0.9490196078431372" d="M 196.5 198 Q 210.7 196.8 215 205.5 L 217 209.5 L 218 216.5 L 214 229.5 L 207.5 236 Q 202.5 240 193.5 240 Q 184.3 238.3 180 231.5 Q 176.7 226.8 178 217.5 Q 180.1 207.1 187.5 202 L 196.5 198 Z M 198 205 L 193 207 Q 188 210 186 217 Q 185 224 187 228 L 193 232 Q 199 233 203 231 L 208 226 L 210 219 L 209 211 Q 206 205 198 205 Z " /><path fill="rgb(8,16,56)" stroke="rgb(8,16,56)" stroke-width="1" opacity="0.9490196078431372" d="M 263.5 198 Q 274.3 197.3 278 203.5 L 279 205.5 L 272.5 209 Q 271.3 203.8 263.5 205 L 261 206 L 260 211.5 L 263.5 214 L 273.5 217 L 277 220.5 L 278 229.5 Q 276.6 235.6 271.5 238 L 260.5 240 L 251 235.5 L 249 229 L 255.5 227 L 258.5 232 L 265.5 233 L 270 229.5 Q 271 225 268.5 224 L 258.5 221 L 253 216.5 L 252 207.5 L 255 202 L 263.5 198 Z " /><path fill="rgb(8,16,56)" stroke="rgb(8,16,56)" stroke-width="1" opacity="0.9490196078431372" d="M 307.5 198 Q 318.3 197.3 322 203.5 L 323 207 Q 318.4 206.4 316.5 210 L 312.5 205 Q 305.5 203.5 304 207.5 Q 303 213 306.5 214 Q 315.5 214.7 320 219 Q 322.7 221.6 322 228.5 Q 320.8 234.3 316.5 237 L 313.5 239 L 304.5 240 L 295 235.5 Q 292.2 233.5 293 229 L 300 227 L 302.5 232 L 309.5 233 L 314 229.5 Q 315 225 312.5 224 L 302.5 221 L 297 216.5 L 296 207.5 L 300.5 201 L 307.5 198 Z " /><path fill="rgb(8,16,56)" stroke="rgb(8,16,56)" stroke-width="1" opacity="0.9490196078431372" d="M 145 199 L 153 199 L 153 202.5 L 151 215 L 167 215 L 167 208.5 L 168 207.5 L 168 199 L 176 199 L 176 202.5 L 175 203.5 L 172 237.5 L 170.5 239 L 164 239 L 164 236.5 L 165 235.5 Q 164.3 226.9 166 222 L 150 222 L 150 230.5 L 149 231.5 L 149 239 L 141 239 L 141 234.5 L 142 233.5 L 145 199 Z " /><path fill="rgb(8,16,56)" stroke="rgb(8,16,56)" stroke-width="1" opacity="0.9490196078431372" d="M 224 199 L 247.5 199 Q 248.6 199.1 248 204.5 L 246.5 206 L 231 206 L 230 215 L 245 215 L 245 220.5 L 243.5 222 L 229 222 L 228 232 L 245 232 L 245 237.5 L 243.5 239 L 220 239 L 224 199 Z " /><path fill="rgb(8,16,56)" stroke="rgb(8,16,56)" stroke-width="1" opacity="0.9490196078431372" d="M 326 199 L 365.5 199 L 366 200.5 L 372 215 Q 374.7 216.1 374 213.5 L 383 199 L 392 199.5 L 376 222.5 L 375 236.5 L 374 239 L 367 239 L 367 232.5 L 368 231.5 L 368 221.5 L 360 204.5 L 356.5 200 L 356 206 L 344 206 L 344 211.5 L 343 212.5 L 341 239 L 333 239 L 333 235.5 L 334 234.5 L 336 207.5 L 337 206.5 L 326 206 L 326 199 Z " /><path fill="rgb(8,16,56)" stroke="rgb(8,16,56)" stroke-width="1" opacity="0.9490196078431372" d="M 394 199 L 402 199 L 402 204.5 L 401 205.5 L 399 232 L 414 232 L 414 239 L 391.5 239 L 390 237.5 L 392 227.5 L 392 217.5 L 393 216.5 L 394 199 Z " /><path fill="rgb(8,16,56)" stroke="rgb(8,16,56)" stroke-width="1" opacity="0.9490196078431372" d="M 422 199 L 445.5 199 Q 446.6 199.1 446 204.5 L 444.5 206 L 429 206 Q 427.1 208.8 428 215 L 443 215 L 443 222 L 427 222 L 427 227.5 L 426 232 L 443 232 L 443 239 L 418 239 L 418 230.5 L 419 229.5 L 420 211.5 L 422 199 Z " /><path fill="rgb(206,173,190)" stroke="rgb(206,173,190)" stroke-width="1" opacity="1" d="M 324.5 16 L 328 17.5 L 295 43.5 L 296 45.5 L 294.5 46 Q 289.5 43.5 294.5 41 L 324.5 16 Z " /><path fill="rgb(206,173,190)" stroke="rgb(206,173,190)" stroke-width="1" opacity="1" d="M 426.5 52 L 435 54.5 L 424.5 55 L 415 62.5 L 405 78 L 392.5 86 Q 385 88.5 373.5 87 L 352.5 81 Q 337 69.5 318 61.5 L 322.5 61 L 356.5 80 L 370.5 84 L 385.5 84 Q 399.9 79.4 408 68.5 Q 412.3 59.8 419.5 54 L 426.5 52 Z " /><path fill="rgb(206,173,190)" stroke="rgb(206,173,190)" stroke-width="1" opacity="1" d="M 301.5 85 Q 304.8 83.9 304 86.5 L 346 134.5 L 359 151.5 L 357.5 152 L 337 128.5 L 335 124 L 329 119.5 L 302.5 88 L 289.5 94 L 288.5 92 L 301.5 85 Z " /><path fill="rgb(206,173,190)" stroke="rgb(206,173,190)" stroke-width="1" opacity="1" d="M 274.5 99 Q 278.3 98.3 279 100.5 L 312.5 142 Q 314.8 141.3 314 143.5 L 323 153.5 L 321.5 154 L 320 151 Q 317.3 152.1 318 149.5 L 315 148 L 307.5 139 Q 305.3 139.8 306 137.5 L 278 102 L 274.5 102 L 264.5 108 L 263 105 L 274.5 99 Z " /><path fill="rgb(206,173,190)" stroke="rgb(206,173,190)" stroke-width="1" opacity="1" d="M 193.5 106 L 197 106.5 L 177.5 115 L 141.5 122 L 137.5 124 L 127.5 125 L 125.5 127 L 120 123.5 L 126.5 121 L 131.5 121 L 141.5 118 L 170.5 113 L 193.5 106 Z " /><path fill="rgb(206,173,190)" stroke="rgb(206,173,190)" stroke-width="1" opacity="1" d="M 250.5 111 L 278 144.5 L 274.5 142 L 268 136.5 L 262 128 Q 259.3 129.1 260 126.5 L 250.5 115 L 247.5 115 L 239.5 120 L 237 120 Q 235.9 117.3 238.5 118 L 250.5 111 Z " /><path fill="rgb(206,173,190)" stroke="rgb(206,173,190)" stroke-width="1" opacity="1" d="M 307.5 114 L 308.5 116 L 307.5 114 Z " /><path fill="rgb(206,173,190)" stroke="rgb(206,173,190)" stroke-width="1" opacity="1" d="M 114.5 124 L 123.5 130 L 135.5 133 L 189.5 133 L 193 134.5 L 132.5 135 L 119.5 132 L 114 128.5 L 113 125.5 L 114.5 124 Z " /><path fill="rgb(206,173,190)" stroke="rgb(206,173,190)" stroke-width="1" opacity="1" d="M 278.5 146 Q 280.8 145.3 280 147.5 L 284.5 153 L 281 151 L 278.5 146 Z " /><path fill="rgb(17,56,118)" stroke="rgb(17,56,118)" stroke-width="1" opacity="0.996078431372549" d="M 286.5 45 L 284.5 48 L 286.5 45 Z " /><path fill="rgb(17,56,118)" stroke="rgb(17,56,118)" stroke-width="1" opacity="0.996078431372549" d="M 290.5 45 L 291.5 47 L 290.5 45 Z " /><path fill="rgb(17,56,118)" stroke="rgb(17,56,118)" stroke-width="1" opacity="0.996078431372549" d="M 284.5 50 L 288 52 L 287.5 54 L 284.5 50 Z " /><path fill="rgb(17,56,118)" stroke="rgb(17,56,118)" stroke-width="1" opacity="0.996078431372549" d="M 295.5 50 L 302 56.5 L 302 58.5 Q 301 62 295.5 61 L 293 59.5 L 294.5 59 L 299.5 60 L 301 56.5 L 295.5 50 Z " /><path fill="rgb(17,56,118)" stroke="rgb(17,56,118)" stroke-width="1" opacity="0.996078431372549" d="M 273.5 52 Q 276.8 50.9 276 53.5 L 277 56.5 L 276 56.5 L 275 53 L 272.5 54 L 273.5 52 Z " /><path fill="rgb(17,56,118)" stroke="rgb(17,56,118)" stroke-width="1" opacity="0.996078431372549" d="M 433.5 52 L 434.5 54 L 433.5 52 Z " /><path fill="rgb(17,56,118)" stroke="rgb(17,56,118)" stroke-width="1" opacity="0.996078431372549" d="M 270.5 54 L 269 56.5 L 270 61.5 L 269 61.5 L 268 56.5 L 270.5 54 Z " /><path fill="rgb(17,56,118)" stroke="rgb(17,56,118)" stroke-width="1" opacity="0.996078431372549" d="M 289.5 55 L 291.5 58 L 289.5 55 Z " /><path fill="rgb(17,56,118)" stroke="rgb(17,56,118)" stroke-width="1" opacity="0.996078431372549" d="M 435.5 55 L 436 58.5 L 435 58.5 L 435.5 55 Z " /><path fill="rgb(17,56,118)" stroke="rgb(17,56,118)" stroke-width="1" opacity="0.996078431372549" d="M 413 58 L 415 58.5 L 409.5 65 L 411 62.5 L 413 58 Z " /><path fill="rgb(17,56,118)" stroke="rgb(17,56,118)" stroke-width="1" opacity="0.996078431372549" d="M 317.5 60 L 319 60.5 L 316.5 62 L 317.5 60 Z " /><path fill="rgb(17,56,118)" stroke="rgb(17,56,118)" stroke-width="1" opacity="0.996078431372549" d="M 436.5 62 L 438 81.5 L 439 82.5 L 439 93.5 L 437.5 93 L 422.5 93 L 390.5 106 L 368.5 107 Q 350.1 103.4 336.5 95 L 309.5 77 L 310 78.5 L 311.5 81 L 314 81 Q 312.9 83.7 315.5 83 Q 328.1 94.4 344.5 102 L 361.5 108 L 377.5 110 L 379.5 110 L 392.5 108 L 401.5 104 L 422.5 98 L 431.5 98 L 440 104.5 L 442 125.5 Q 439.9 133.8 433.5 138 L 422.5 143 L 401.5 149 L 396.5 150 L 373.5 150 L 358.5 147 L 353 144 L 338 125.5 L 338.5 124 L 331 117.5 L 328.5 113 L 326 111.5 L 326.5 110 L 323 107.5 Q 323.8 105.3 321.5 106 L 309 91.5 L 309 89 L 306 87.5 Q 306.7 84.9 304 86 L 304 84 L 301.5 84 L 288 91 L 288 93.5 L 291 97.5 L 322 132.5 L 321 135 L 319 135 Q 320.1 137.7 317.5 137 Q 316.5 140 311.5 139 Q 306.6 136.4 306 131 Q 303.3 132.1 304 129.5 L 277.5 98 Q 268.8 100.3 263 105.5 L 267 114 Q 269.7 112.9 269 115.5 L 291 143 L 282.5 143 L 281.5 144 Q 274.6 142.4 272 136.5 L 262 124.5 L 260 120 Q 257.3 121.1 258 118.5 L 256 115 L 253 113.5 L 251.5 111 L 248.5 111 L 236 118.5 L 260 149.5 L 258.5 151 L 254.5 147 L 236 134.5 Q 236.7 131.9 234 133 L 236.5 137 Q 238.8 136.3 238 138.5 L 231.5 133 L 223 125.5 L 224 121.5 L 223 121.5 L 222.5 123 L 222 118 Q 225.3 119.3 224 114.5 L 233.5 108 L 239.5 106 L 295.5 74 L 303 72 L 304.5 68 L 312.5 63 L 312.5 65 L 321.5 69 L 342.5 83 L 360.5 91 L 371.5 94 L 388.5 94 L 399.5 90 L 414 79 L 414 77.5 L 422.5 69 L 436.5 62 Z M 304 72 L 306 75 Q 308 76 307 73 L 304 72 Z M 308 75 L 309 77 Q 310 74 308 75 Z M 225 124 L 224 126 L 233 133 L 234 133 L 225 124 Z " /><path fill="rgb(17,56,118)" stroke="rgb(17,56,118)" stroke-width="1" opacity="0.996078431372549" d="M 252.5 64 L 256 65.5 L 255.5 69 L 255 65 Q 250.1 64.9 248 68.5 L 249 74.5 L 248 74.5 L 247 68.5 L 247.5 66 L 252.5 64 Z " /><path fill="rgb(17,56,118)" stroke="rgb(17,56,118)" stroke-width="1" opacity="0.996078431372549" d="M 280.5 67 L 281 70.5 Q 279.3 73.8 273.5 73 L 272 70.5 L 273 70.5 Q 272.1 73.9 277.5 72 L 280 71 L 280.5 67 Z " /><path fill="rgb(17,56,118)" stroke="rgb(17,56,118)" stroke-width="1" opacity="0.996078431372549" d="M 406.5 69 L 400.5 76 L 406.5 69 Z " /><path fill="rgb(17,56,118)" stroke="rgb(17,56,118)" stroke-width="1" opacity="0.996078431372549" d="M 256.5 70 L 258 74.5 L 257 74.5 L 256.5 70 Z " /><path fill="rgb(17,56,118)" stroke="rgb(17,56,118)" stroke-width="1" opacity="0.996078431372549" d="M 258.5 76 L 260 80.5 L 256.5 83 L 256.5 82 L 259 80.5 L 258.5 76 Z " /><path fill="rgb(17,56,118)" stroke="rgb(17,56,118)" stroke-width="1" opacity="0.996078431372549" d="M 230.5 78 L 233 78.5 L 230.5 79 L 230.5 78 Z " /><path fill="rgb(17,56,118)" stroke="rgb(17,56,118)" stroke-width="1" opacity="0.996078431372549" d="M 226.5 80 L 227 81.5 L 225 82.5 L 226.5 80 Z " /><path fill="rgb(17,56,118)" stroke="rgb(17,56,118)" stroke-width="1" opacity="0.996078431372549" d="M 233.5 81 L 234 84.5 L 233 84.5 L 233.5 81 Z " /><path fill="rgb(17,56,118)" stroke="rgb(17,56,118)" stroke-width="1" opacity="0.996078431372549" d="M 251.5 82 L 255 83.5 L 252.5 84 L 251.5 82 Z " /><path fill="rgb(17,56,118)" stroke="rgb(17,56,118)" stroke-width="1" opacity="0.996078431372549" d="M 372.5 83 L 375 83.5 L 372.5 84 L 372.5 83 Z " /><path fill="rgb(17,56,118)" stroke="rgb(17,56,118)" stroke-width="1" opacity="0.996078431372549" d="M 226.5 88 L 227 94.5 L 228.5 96 L 234 93.5 L 234.5 89 L 235 93.5 L 231.5 98 L 229.5 98 L 226 94.5 L 226.5 88 Z " /><path fill="rgb(17,56,118)" stroke="rgb(17,56,118)" stroke-width="1" opacity="0.996078431372549" d="M 199.5 98 L 197.5 101 L 197 99 L 199.5 98 Z " /><path fill="rgb(17,56,118)" stroke="rgb(17,56,118)" stroke-width="1" opacity="0.996078431372549" d="M 202.5 98 L 213 104.5 L 212.5 109 L 212 104 L 203.5 100 L 202.5 98 Z " /><path fill="rgb(17,56,118)" stroke="rgb(17,56,118)" stroke-width="1" opacity="0.996078431372549" d="M 197.5 102 L 203 106.5 L 200.5 105 L 197.5 102 Z " /><path fill="rgb(17,56,118)" stroke="rgb(17,56,118)" stroke-width="1" opacity="0.996078431372549" d="M 204.5 107 L 211 109.5 L 207.5 110 L 204.5 107 Z " /><path fill="rgb(17,56,118)" stroke="rgb(17,56,118)" stroke-width="1" opacity="0.996078431372549" d="M 220.5 114 Q 222.8 113.3 222 115.5 L 219.5 116 L 218 115.5 L 220.5 114 Z " /><path fill="rgb(17,56,118)" stroke="rgb(17,56,118)" stroke-width="1" opacity="0.996078431372549" d="M 208.5 120 L 208 121.5 L 207.5 132 L 207 121.5 L 208.5 120 Z " /><path fill="rgb(17,56,118)" stroke="rgb(17,56,118)" stroke-width="1" opacity="0.996078431372549" d="M 115.5 123 Q 117.8 122.3 117 124.5 L 118.5 127 L 115.5 123 Z " /><path fill="rgb(17,56,118)" stroke="rgb(17,56,118)" stroke-width="1" opacity="0.996078431372549" d="M 111.5 124 L 113 124.5 L 104.5 130 L 107.5 126 L 111.5 124 Z " /><path fill="rgb(17,56,118)" stroke="rgb(17,56,118)" stroke-width="1" opacity="0.996078431372549" d="M 120.5 126 L 121.5 128 L 123.5 128 L 127 129.5 L 124.5 130 L 120 127.5 L 120.5 126 Z " /><path fill="rgb(17,56,118)" stroke="rgb(17,56,118)" stroke-width="1" opacity="0.996078431372549" d="M 103.5 131 L 103 132.5 L 102 140.5 L 105.5 145 L 113 149.5 Q 110.8 150.8 113.5 152 L 117.5 151 L 126 154.5 L 123.5 155 L 120.5 154 L 120.5 155 L 122 155.5 L 120.5 156 L 108 149.5 Q 110.3 148.3 107.5 147 L 106.5 149 L 100 144 L 101 134.5 L 103.5 131 Z M 110 149 L 110 150 L 112 150 L 110 149 Z M 117 152 L 118 154 L 120 154 L 117 152 Z " /><path fill="rgb(17,56,118)" stroke="rgb(17,56,118)" stroke-width="1" opacity="0.996078431372549" d="M 131.5 131 L 134 131.5 L 131.5 132 L 131.5 131 Z " /><path fill="rgb(17,56,118)" stroke="rgb(17,56,118)" stroke-width="1" opacity="0.996078431372549" d="M 138.5 132 L 141 132.5 L 138.5 133 L 138.5 132 Z " /><path fill="rgb(17,56,118)" stroke="rgb(17,56,118)" stroke-width="1" opacity="0.996078431372549" d="M 163.5 132 L 190 132.5 L 163.5 133 L 163.5 132 Z " /><path fill="rgb(17,56,118)" stroke="rgb(17,56,118)" stroke-width="1" opacity="0.996078431372549" d="M 191.5 133 L 194 133.5 L 191.5 134 L 191.5 133 Z " /><path fill="rgb(17,56,118)" stroke="rgb(17,56,118)" stroke-width="1" opacity="0.996078431372549" d="M 200.5 136 L 201.5 138 L 200.5 136 Z " /><path fill="rgb(17,56,118)" stroke="rgb(17,56,118)" stroke-width="1" opacity="0.996078431372549" d="M 208.5 136 L 209 142 L 205 139.5 L 206.5 140 L 208 140 L 208.5 136 Z " /><path fill="rgb(17,56,118)" stroke="rgb(17,56,118)" stroke-width="1" opacity="0.996078431372549" d="M 240.5 140 L 248.5 147 L 252 148 L 256 153.5 L 254.5 153 L 251.5 151 L 240.5 140 Z " /><path fill="rgb(17,56,118)" stroke="rgb(17,56,118)" stroke-width="1" opacity="0.996078431372549" d="M 443.5 143 L 445.5 146 L 443.5 143 Z " /><path fill="rgb(17,56,118)" stroke="rgb(17,56,118)" stroke-width="1" opacity="0.996078431372549" d="M 440.5 144 L 442 144.5 L 438.5 147 L 438 145 L 440.5 144 Z " /><path fill="rgb(17,56,118)" stroke="rgb(17,56,118)" stroke-width="1" opacity="0.996078431372549" d="M 99.5 146 L 101.5 150 Q 104.8 148.9 104 151.5 L 102.5 151 Q 100.3 150.3 101 152.5 L 102 155 L 108.5 159 L 110 158.5 L 109.5 160 L 112 161.5 L 110.5 161 Q 103.8 158.8 100 153.5 L 99.5 146 Z " /><path fill="rgb(17,56,118)" stroke="rgb(17,56,118)" stroke-width="1" opacity="0.996078431372549" d="M 446.5 147 L 448 150.5 L 447 150.5 L 446.5 147 Z " /><path fill="rgb(17,56,118)" stroke="rgb(17,56,118)" stroke-width="1" opacity="0.996078431372549" d="M 432.5 148 L 435 148.5 L 427.5 151 L 427.5 150 L 432.5 148 Z " /><path fill="rgb(17,56,118)" stroke="rgb(17,56,118)" stroke-width="1" opacity="0.996078431372549" d="M 105.5 152 L 104.5 154 L 105.5 152 Z " /><path fill="rgb(17,56,118)" stroke="rgb(17,56,118)" stroke-width="1" opacity="0.996078431372549" d="M 417.5 152 L 422 152.5 L 417.5 153 L 417.5 152 Z " /><path fill="rgb(17,56,118)" stroke="rgb(17,56,118)" stroke-width="1" opacity="0.996078431372549" d="M 107.5 153 Q 118.1 160.9 133 164.5 L 130.5 165 L 110 157 Q 111.1 154.3 108.5 155 Q 107.3 157.2 106 154.5 L 107.5 153 Z " /><path fill="rgb(17,56,118)" stroke="rgb(17,56,118)" stroke-width="1" opacity="0.996078431372549" d="M 412.5 153 L 416 153.5 L 412.5 154 L 412.5 153 Z " /><path fill="rgb(17,56,118)" stroke="rgb(17,56,118)" stroke-width="1" opacity="0.996078431372549" d="M 402.5 154 L 409 154.5 L 402.5 155 L 402.5 154 Z " /><path fill="rgb(17,56,118)" stroke="rgb(17,56,118)" stroke-width="1" opacity="0.996078431372549" d="M 127.5 155 L 130 155.5 L 127.5 156 L 127.5 155 Z " /><path fill="rgb(17,56,118)" stroke="rgb(17,56,118)" stroke-width="1" opacity="0.996078431372549" d="M 257.5 155 L 264.5 163 L 257.5 155 Z " /><path fill="rgb(17,56,118)" stroke="rgb(17,56,118)" stroke-width="1" opacity="0.996078431372549" d="M 327.5 155 L 328.5 156 L 336.5 156 L 338.5 156 L 343 156.5 L 328.5 157 L 327.5 155 Z " /><path fill="rgb(17,56,118)" stroke="rgb(17,56,118)" stroke-width="1" opacity="0.996078431372549" d="M 384.5 155 L 397 155.5 L 384.5 156 L 384.5 155 Z " /><path fill="rgb(17,56,118)" stroke="rgb(17,56,118)" stroke-width="1" opacity="0.996078431372549" d="M 435.5 155 L 437 155.5 L 434.5 157 L 435.5 155 Z " /><path fill="rgb(17,56,118)" stroke="rgb(17,56,118)" stroke-width="1" opacity="0.996078431372549" d="M 449.5 155 L 451 160.5 Q 448.8 161.8 450 166.5 L 447 169.5 L 447.5 171 Q 443.7 168.7 449 166.5 L 449.5 155 Z " /><path fill="rgb(17,56,118)" stroke="rgb(17,56,118)" stroke-width="1" opacity="0.996078431372549" d="M 134.5 157 L 137 157.5 L 134.5 158 L 134.5 157 Z " /><path fill="rgb(17,56,118)" stroke="rgb(17,56,118)" stroke-width="1" opacity="0.996078431372549" d="M 316.5 157 L 325 157.5 L 316.5 158 L 316.5 157 Z " /><path fill="rgb(17,56,118)" stroke="rgb(17,56,118)" stroke-width="1" opacity="0.996078431372549" d="M 129.5 158 L 132 158.5 L 129.5 159 L 129.5 158 Z " /><path fill="rgb(17,56,118)" stroke="rgb(17,56,118)" stroke-width="1" opacity="0.996078431372549" d="M 139.5 158 L 142 158.5 L 139.5 159 L 139.5 158 Z " /><path fill="rgb(17,56,118)" stroke="rgb(17,56,118)" stroke-width="1" opacity="0.996078431372549" d="M 304.5 158 L 314 158.5 L 299.5 160 L 299.5 159 L 304.5 158 Z " /><path fill="rgb(17,56,118)" stroke="rgb(17,56,118)" stroke-width="1" opacity="0.996078431372549" d="M 133.5 159 L 136 159.5 L 133.5 160 L 133.5 159 Z " /><path fill="rgb(17,56,118)" stroke="rgb(17,56,118)" stroke-width="1" opacity="0.996078431372549" d="M 143.5 159 L 147 159.5 L 143.5 160 L 143.5 159 Z " /><path fill="rgb(17,56,118)" stroke="rgb(17,56,118)" stroke-width="1" opacity="0.996078431372549" d="M 137.5 160 L 146 161.5 L 142.5 162 L 137.5 161 L 137.5 160 Z " /><path fill="rgb(17,56,118)" stroke="rgb(17,56,118)" stroke-width="1" opacity="0.996078431372549" d="M 150.5 160 L 154 160.5 L 150.5 161 L 150.5 160 Z " /><path fill="rgb(17,56,118)" stroke="rgb(17,56,118)" stroke-width="1" opacity="0.996078431372549" d="M 290.5 160 L 296 160.5 L 290.5 161 L 290.5 160 Z " /><path fill="rgb(17,56,118)" stroke="rgb(17,56,118)" stroke-width="1" opacity="0.996078431372549" d="M 155.5 161 L 160 161.5 L 155.5 162 L 155.5 161 Z " /><path fill="rgb(17,56,118)" stroke="rgb(17,56,118)" stroke-width="1" opacity="0.996078431372549" d="M 284.5 161 L 288 161.5 L 284.5 162 L 284.5 161 Z " /><path fill="rgb(17,56,118)" stroke="rgb(17,56,118)" stroke-width="1" opacity="0.996078431372549" d="M 113.5 162 L 132.5 169 Q 134 166.5 135.5 170 L 139.5 170 L 147.5 173 L 147.5 171 L 152.5 172 L 156 171 L 156.5 169 L 162 172.5 L 156.5 174 L 154 173 Q 152.7 176.7 158.5 175 L 164.5 177 L 166.5 176 L 168.5 176 L 170 176 L 170.5 178 L 175.5 178 L 180.5 179 L 180.5 178 L 177 176.5 L 178.5 176 L 184.5 178 L 184.5 177 L 183 176.5 L 186 175.5 L 181 174.5 L 184 173.5 L 181 172.5 L 183.5 172 L 184.5 173 L 194.5 173 L 195.5 174 L 197.5 173 L 198.5 174 L 234.5 174 L 235.5 173 L 250.5 173 L 251.5 172 L 267.5 171 L 268.5 170 L 290.5 168 L 305.5 165 L 328.5 164 L 335.5 162 L 355.5 162 L 345 173.5 L 342 182 L 352 182.5 L 342.5 183 L 341.5 182 L 328.5 182 L 327.5 181 L 304.5 181 L 303.5 182 L 264.5 182 L 263.5 183 L 204.5 183 L 203.5 182 L 192 181.5 L 195 180.5 L 191.5 180 Q 190 182.5 184.5 181 L 183.5 180 L 173.5 180 L 167.5 178 L 165.5 178 L 133.5 171 L 119.5 166 L 113.5 163 L 113.5 162 Z M 158 171 L 156 173 L 159 173 L 158 171 Z M 187 174 L 187 175 L 190 175 L 187 174 Z " /><path fill="rgb(17,56,118)" stroke="rgb(17,56,118)" stroke-width="1" opacity="0.996078431372549" d="M 147.5 162 L 152 162.5 L 147.5 163 L 147.5 162 Z " /><path fill="rgb(17,56,118)" stroke="rgb(17,56,118)" stroke-width="1" opacity="0.996078431372549" d="M 163.5 162 L 168 162.5 L 163.5 163 L 163.5 162 Z " /><path fill="rgb(17,56,118)" stroke="rgb(17,56,118)" stroke-width="1" opacity="0.996078431372549" d="M 277.5 162 L 280 162.5 L 277.5 163 L 277.5 162 Z " /><path fill="rgb(17,56,118)" stroke="rgb(17,56,118)" stroke-width="1" opacity="0.996078431372549" d="M 154.5 163 L 159 163.5 L 154.5 164 L 154.5 163 Z " /><path fill="rgb(17,56,118)" stroke="rgb(17,56,118)" stroke-width="1" opacity="0.996078431372549" d="M 169.5 163 L 176 163.5 L 169.5 164 L 169.5 163 Z " /><path fill="rgb(17,56,118)" stroke="rgb(17,56,118)" stroke-width="1" opacity="0.996078431372549" d="M 256 163 L 263 163.5 L 257 164.5 L 263 165.5 L 257.5 166 L 256 163 Z " /><path fill="rgb(17,56,118)" stroke="rgb(17,56,118)" stroke-width="1" opacity="0.996078431372549" d="M 272.5 163 L 275 163.5 L 272.5 164 L 272.5 163 Z " /><path fill="rgb(17,56,118)" stroke="rgb(17,56,118)" stroke-width="1" opacity="0.996078431372549" d="M 160.5 164 L 173 165.5 L 167.5 166 Q 166 163.5 160.5 165 L 160.5 164 Z " /><path fill="rgb(17,56,118)" stroke="rgb(17,56,118)" stroke-width="1" opacity="0.996078431372549" d="M 178.5 164 L 186 164.5 L 178.5 165 L 178.5 164 Z " /><path fill="rgb(17,56,118)" stroke="rgb(17,56,118)" stroke-width="1" opacity="0.996078431372549" d="M 248.5 164 L 254 164.5 L 248.5 165 L 248.5 164 Z " /><path fill="rgb(17,56,118)" stroke="rgb(17,56,118)" stroke-width="1" opacity="0.996078431372549" d="M 265.5 164 L 269 164.5 L 265.5 165 L 265.5 164 Z " /><path fill="rgb(17,56,118)" stroke="rgb(17,56,118)" stroke-width="1" opacity="0.996078431372549" d="M 190.5 165 L 204 165.5 L 190.5 166 L 190.5 165 Z " /><path fill="rgb(17,56,118)" stroke="rgb(17,56,118)" stroke-width="1" opacity="0.996078431372549" d="M 233.5 165 L 246 165.5 L 233.5 166 L 233.5 165 Z " /><path fill="rgb(17,56,118)" stroke="rgb(17,56,118)" stroke-width="1" opacity="0.996078431372549" d="M 176.5 166 L 185 166.5 L 176.5 167 L 176.5 166 Z " /><path fill="rgb(17,56,118)" stroke="rgb(17,56,118)" stroke-width="1" opacity="0.996078431372549" d="M 212.5 166 L 219 166.5 L 212.5 167 L 212.5 166 Z " /><path fill="rgb(17,56,118)" stroke="rgb(17,56,118)" stroke-width="1" opacity="0.996078431372549" d="M 248.5 166 L 255 166.5 L 248.5 167 L 248.5 166 Z " /><path fill="rgb(17,56,118)" stroke="rgb(17,56,118)" stroke-width="1" opacity="0.996078431372549" d="M 186.5 167 L 198 167.5 L 186.5 168 L 186.5 167 Z " /><path fill="rgb(17,56,118)" stroke="rgb(17,56,118)" stroke-width="1" opacity="0.996078431372549" d="M 236.5 167 L 246 167.5 L 236.5 168 L 236.5 167 Z " /><path fill="rgb(17,56,118)" stroke="rgb(17,56,118)" stroke-width="1" opacity="0.996078431372549" d="M 206.5 168 L 229 168.5 L 206.5 169 L 206.5 168 Z " /><path fill="rgb(17,56,118)" stroke="rgb(17,56,118)" stroke-width="1" opacity="0.996078431372549" d="M 152.5 169 L 151.5 171 L 152.5 169 Z " /><path fill="rgb(17,56,118)" stroke="rgb(17,56,118)" stroke-width="1" opacity="0.996078431372549" d="M 442.5 170 L 445 170.5 Q 442.9 173.8 442.5 170 Z " /><path fill="rgb(17,56,118)" stroke="rgb(17,56,118)" stroke-width="1" opacity="0.996078431372549" d="M 440.5 172 L 442 172.5 L 432.5 177 L 432.5 176 L 440.5 172 Z " /><path fill="rgb(17,56,118)" stroke="rgb(17,56,118)" stroke-width="1" opacity="0.996078431372549" d="M 173.5 176 L 176 176.5 L 173.5 177 L 173.5 176 Z " /><path fill="rgb(17,56,118)" stroke="rgb(17,56,118)" stroke-width="1" opacity="0.996078431372549" d="M 429.5 177 L 431 177.5 L 417.5 181 L 417.5 180 L 429.5 177 Z " /><path fill="rgb(17,56,118)" stroke="rgb(17,56,118)" stroke-width="1" opacity="0.996078431372549" d="M 410.5 181 L 416 181.5 L 410.5 182 L 410.5 181 Z " /><path fill="rgb(17,56,118)" stroke="rgb(17,56,118)" stroke-width="1" opacity="0.996078431372549" d="M 399.5 182 L 400 184 L 354 183.5 L 398.5 183 L 399.5 182 Z " /><path fill="rgb(17,56,118)" stroke="rgb(17,56,118)" stroke-width="1" opacity="0.996078431372549" d="M 401.5 182 L 408 182.5 L 401.5 183 L 401.5 182 Z " /><path fill="rgb(52,132,194)" stroke="rgb(52,132,194)" stroke-width="1" opacity="1" d="M 287.5 45 L 289.5 45 L 301 56.5 L 299.5 60 Q 290.5 60 288 53.5 Q 288.8 51.3 286.5 52 L 284 48.5 L 287.5 45 Z " /><path fill="rgb(52,132,194)" stroke="rgb(52,132,194)" stroke-width="1" opacity="1" d="M 273.5 53 Q 275.8 52.3 275 54.5 L 280 66.5 L 280 71 L 273 72 L 269 56.5 L 273.5 53 Z " /><path fill="rgb(52,132,194)" stroke="rgb(52,132,194)" stroke-width="1" opacity="1" d="M 424.5 55 L 434.5 55 L 435 58.5 L 436 63 L 426.5 66 L 414 77.5 Q 414.8 79.8 412.5 79 Q 405.7 87.2 395.5 92 L 388.5 94 L 371.5 94 L 350.5 87 L 312 64.5 L 317.5 61 L 357.5 83 L 373.5 87 L 388.5 87 L 394.5 85 L 405 78 L 415 62.5 L 420.5 57 L 424.5 55 Z " /><path fill="rgb(52,132,194)" stroke="rgb(52,132,194)" stroke-width="1" opacity="1" d="M 252.5 65 Q 256.7 63.7 255 68.5 L 259 80.5 Q 257.6 83.6 252.5 83 Q 248.4 77.6 248 68.5 L 252.5 65 Z " /><path fill="rgb(52,132,194)" stroke="rgb(52,132,194)" stroke-width="1" opacity="1" d="M 229.5 79 Q 235.6 77.2 233 84.5 L 234 85.5 L 234 93.5 L 228.5 96 L 227 94.5 Q 228.5 89 226 87.5 L 226 85.5 L 227 80 L 229.5 79 Z " /><path fill="rgb(52,132,194)" stroke="rgb(52,132,194)" stroke-width="1" opacity="1" d="M 200.5 98 L 212 104 L 212 109 L 207.5 109 L 197 101.5 L 200.5 98 Z " /><path fill="rgb(52,132,194)" stroke="rgb(52,132,194)" stroke-width="1" opacity="1" d="M 220.5 115 L 222 116.5 L 223 125.5 L 230.5 133 L 253 151 Q 251.9 153.7 254.5 153 L 263.5 163 L 256.5 163 L 247.5 165 L 233.5 165 L 232.5 166 L 204.5 166 L 203.5 165 L 176.5 164 L 175.5 163 L 160.5 162 L 137.5 158 L 115.5 151 L 103 142.5 L 102 134.5 L 107.5 127 L 113.5 124 L 113 125.5 L 115.5 130 L 122.5 133 L 132.5 135 L 192.5 135 L 194.5 134 L 209 142 L 208 135.5 L 208 121.5 L 220.5 115 Z " /><path fill="rgb(52,132,194)" stroke="rgb(52,132,194)" stroke-width="1" opacity="1" d="M 100 144 L 117.5 155 L 137.5 161 L 160.5 165 L 166.5 165 L 167.5 166 L 185.5 167 L 186.5 168 L 202.5 168 L 203.5 169 L 205.5 168 L 206.5 169 L 228.5 169 L 229.5 168 L 245.5 168 L 246.5 167 L 262.5 166 L 280.5 162 L 287.5 162 L 304.5 159 L 324.5 158 L 325.5 157 L 342.5 157 L 343.5 156 L 345.5 157 L 346.5 156 L 396.5 156 L 397.5 155 L 408.5 155 L 429.5 151 L 443.5 144 Q 451.1 150.4 449 166.5 L 442.5 172 L 431.5 177 L 416.5 181 L 401.5 182 L 400.5 183 L 398.5 183 L 352.5 183 L 351.5 182 L 342 182 L 345 173.5 L 356 162.5 L 335.5 162 L 328.5 164 L 305.5 165 L 304.5 166 L 275.5 169 L 259.5 172 L 251.5 172 L 250.5 173 L 198.5 174 L 196.5 173 L 194.5 173 Q 185.5 171.5 181 174.5 L 185.5 175 L 189.5 174 L 189.5 175 L 186 175.5 L 186.5 177 L 183.5 176 L 183.5 177 L 185 177.5 L 182.5 178 L 177.5 176 L 178.5 178 L 181 178.5 L 176.5 179 L 170 178 Q 171.1 175.3 168.5 176 L 166.5 176 L 164.5 177 L 154 175 Q 152.9 172.3 155.5 173 Q 160 171 156.5 169 L 156 171 L 150.5 172 L 147.5 171 L 147.5 173 Q 143.2 169.8 135.5 170 L 133.5 168 L 131.5 168 L 112.5 162 L 102 155 L 101 151 L 103.5 152 L 104 150 L 100 148.5 L 100 144 Z M 110 155 L 110 157 L 113 157 L 110 155 Z M 436 155 L 435 157 L 437 156 L 436 155 Z M 116 158 L 117 160 L 119 160 L 116 158 Z M 120 160 L 122 162 L 124 162 L 120 160 Z M 125 162 L 125 163 L 127 163 L 125 162 Z M 128 163 L 128 164 L 130 164 L 128 163 Z M 131 164 L 131 165 L 133 165 L 131 164 Z M 159 171 L 159 173 L 157 173 L 157 174 L 162 173 L 159 171 Z M 182 172 L 182 173 L 184 173 L 182 172 Z M 174 176 L 174 177 L 176 177 L 174 176 Z " /><path fill="rgb(52,132,194)" stroke="rgb(52,132,194)" stroke-width="1" opacity="1" d="M 191.5 180 L 195 180.5 L 191.5 181 L 191.5 180 Z " /></svg>